# xmcd CD database file
#
# Track frame offsets:
#	150
#	12870
#	32017
#	43616
#	55315
#	70114
#	81423
#	93065
#	106513
#	120759
#	132414
#	149133
#	169282
#	210175
#	234169
#	258335
#	279268
#	297370
#
# Disc length: 4505 seconds
#
# Revision: 0
# Processed by: cddbd v1.5.2PL0 Copyright (c) Steve Scherf et al.
# Submitted via: Feurio! 1.68 - http://www.feurio.com
#
DISCID=ef119712
DTITLE=Raymond Froggatt - Southern Fried Frog and Rogues And Thieves
DYEAR=1900
DGENRE=Country
TTITLE0=All Because Of You
TTITLE1=Conversations
TTITLE2=Luci Mae
TTITLE3=Give Me A Call
TTITLE4=Me And My Ideas
TTITLE5=Warm And Special Love
TTITLE6=It Doesn't Matter
TTITLE7=Cold As A Landlord's Heart
TTITLE8=Top Of The Stairs
TTITLE9='til The Night Is Through
TTITLE10=Watchin' The Light
TTITLE11=Spin A Thought
TTITLE12=Flyin'
TTITLE13=You Sing So Blue
TTITLE14=Everybody Is Losin'
TTITLE15=Restless Travellers
TTITLE16=Comin' Round
TTITLE17=Rogues And Thieves
EXTD=ARD  Musik Archiv Mooncrest records 1998 CRESTCD 026 Z
EXTT0=Southern Fried Frog
EXTT1=Southern Fried Frog
EXTT2=Southern Fried Frog
EXTT3=Southern Fried Frog
EXTT4=Southern Fried Frog
EXTT5=Southern Fried Frog
EXTT6=Southern Fried Frog
EXTT7=Southern Fried Frog
EXTT8=Southern Fried Frog
EXTT9=Southern Fried Frog
EXTT10=Rogues And Thieves
EXTT11=Rogues And Thieves
EXTT12=Rogues And Thieves
EXTT13=Rogues And Thieves
EXTT14=Rogues And Thieves
EXTT15=Rogues And Thieves
EXTT16=Rogues And Thieves
EXTT17=Rogues And Thieves
PLAYORDER=
